<svg width="32" height="32" viewBox="0 0 32 32" fill="none" xmlns="http://www.w3.org/2000/svg">
<g clip-path="url(#clip0_825_37)">
<path d="M20.3875 3.29237L20.3875 3.29237C22.0241 3.59531 23.6695 3.84943 25.3144 4.10346C25.493 4.13104 25.6716 4.15862 25.8502 4.18627L25.8502 4.18627C26.2421 4.24663 26.5591 4.40866 26.7781 4.6517C26.9968 4.89449 27.1208 5.22163 27.1208 5.61847C27.1208 6.96817 27.1276 8.3175 27.1344 9.66662C27.1498 12.7418 27.1653 15.816 27.1004 18.8912C27.0561 21.0096 26.5122 22.8172 25.5004 24.3138C24.4885 25.8105 23.0067 26.9991 21.082 27.8761L21.0819 27.8762C20.2747 28.2455 19.4615 28.5952 18.6477 28.9451C18.0103 29.2192 17.3726 29.4934 16.7371 29.7774L16.7371 29.7773L16.7356 29.7781C16.5017 29.8919 16.2451 29.951 15.985 29.951C15.725 29.951 15.4684 29.8919 15.2345 29.778L15.2331 29.7774C14.6151 29.4999 13.9932 29.2341 13.3716 28.9685C12.4056 28.5556 11.4405 28.1431 10.4929 27.6879C7.32351 26.1595 5.47803 23.6245 4.94575 20.1377C4.87851 19.6619 4.84675 19.1817 4.85072 18.7011L4.85072 18.7006C4.84343 14.3762 4.84197 10.0519 4.84635 5.72748V5.72743C4.84635 5.25438 4.96402 4.89888 5.19135 4.64678C5.41887 4.39449 5.76241 4.23887 6.22807 4.1784C8.95194 3.82589 11.6707 3.42032 14.3049 2.58958L14.2899 2.54198L14.3049 2.58958C14.6407 2.48363 14.97 2.35076 15.2967 2.21892C15.4379 2.16191 15.5787 2.10509 15.7194 2.05072L16.2494 2.05001C17.577 2.64043 18.9686 3.02921 20.3875 3.29237ZM5.74163 19.8511L5.74177 19.8521C6.21239 23.21 7.98014 25.6233 11.0565 27.039C11.9943 27.4706 12.9439 27.8793 13.8931 28.2879C14.456 28.5302 15.0188 28.7725 15.5788 29.0193C15.7064 29.0819 15.8466 29.1145 15.9887 29.1145C16.1308 29.1145 16.271 29.0819 16.3986 29.0193C17.8599 28.3711 19.3249 27.7304 20.7935 27.0973L20.7937 27.0972C21.7461 26.683 22.6265 26.1477 23.3922 25.4323L23.3923 25.4322C25.3658 23.5794 26.3018 21.2842 26.2952 18.5843C26.2893 16.249 26.2913 13.9136 26.2932 11.5781C26.2942 10.4103 26.2952 9.2426 26.2952 8.07491V8.07015V8.06539V8.06062V8.05586V8.0511V8.04634V8.04158V8.03682V8.03206V8.0273V8.02254V8.01778V8.01302V8.00826V8.0035V7.99874V7.99398V7.98922V7.98446V7.9797V7.97494V7.97018V7.96542V7.96066V7.9559V7.95114V7.94638V7.94162V7.93686V7.9321V7.92734V7.92258V7.91782V7.91306V7.9083V7.90354V7.89878V7.89402V7.88926V7.8845V7.87974V7.87498V7.87022V7.86546V7.8607V7.85594V7.85118V7.84642V7.84166V7.8369V7.83214V7.82738V7.82262V7.81786V7.8131V7.80834V7.80358V7.79882V7.79406V7.7893V7.78454V7.77978V7.77502V7.77026V7.7655V7.76074V7.75598V7.75122V7.74646V7.7417V7.73694V7.73219V7.72743V7.72267V7.71791V7.71315V7.70839V7.70363V7.69887V7.69411V7.68935V7.68459V7.67983V7.67507V7.67031V7.66555V7.66079V7.65604V7.65128V7.64652V7.64176V7.637V7.63224V7.62748V7.62272V7.61796V7.6132V7.60844V7.60368V7.59893V7.59417V7.58941V7.58465V7.57989V7.57513V7.57037V7.56561V7.56085V7.55609V7.55134V7.54658V7.54182V7.53706V7.5323V7.52754V7.52278V7.51802V7.51326V7.50851V7.50375V7.49899V7.49423V7.48947V7.48471V7.47995V7.47519V7.47044V7.46568V7.46092V7.45616V7.4514V7.44664V7.44188V7.43712V7.43237V7.42761V7.42285V7.41809V7.41333V7.40857V7.40381V7.39906V7.3943V7.38954V7.38478V7.38002V7.37526V7.3705V7.36575V7.36099V7.35623V7.35147V7.34671V7.34195V7.3372V7.33244V7.32768V7.32292V7.31816V7.3134V7.30865V7.30389V7.29913V7.29437V7.28961V7.28485V7.2801V7.27534V7.27058V7.26582V7.26106V7.2563V7.25155V7.24679V7.24203V7.23727V7.23251V7.22776V7.223V7.21824V7.21348V7.20872V7.20396V7.19921V7.19445V7.18969V7.18493V7.18017V7.17542V7.17066V7.1659V7.16114V7.15638V7.15163V7.14687V7.14211V7.13735V7.1326V7.12784V7.12308V7.11832V7.11356V7.10881V7.10405V7.09929V7.09453V7.08977V7.08502V7.08026V7.0755V7.07074V7.06599V7.06123V7.05647V7.05171V7.04695V7.0422V7.03744V7.03268V7.02792V7.02317V7.01841V7.01365V7.00889V7.00413V6.99938V6.99462V6.98986V6.9851V6.98035V6.97559V6.97083V6.96607V6.96132V6.95656V6.9518V6.94704V6.94229V6.93753V6.93277V6.92801V6.92326V6.9185V6.91374V6.90898V6.90423V6.89947V6.89471V6.88995V6.8852V6.88044V6.87568V6.87092V6.86617V6.86141V6.85665V6.85189V6.84714V6.84238V6.83762V6.83286V6.82811V6.82335V6.81859V6.81384V6.80908V6.80432V6.79956V6.79481V6.79005V6.78529V6.78053V6.77578V6.77102V6.76626V6.76151V6.75675V6.75199V6.74723V6.74248V6.73772V6.73296V6.72821V6.72345V6.71869V6.71393V6.70918V6.70442V6.69966V6.69491V6.69015V6.68539V6.68063V6.67588V6.67112V6.66636V6.66161V6.65685V6.65209V6.64733V6.64258V6.63782V6.63306V6.62831V6.62355V6.61879V6.61404V6.60928V6.60452V6.59976V6.59501V6.59025V6.58549V6.58074V6.57598V6.57122V6.56647V6.56171V6.55695V6.5522V6.54744V6.54268V6.53792V6.53317V6.52841V6.52365V6.5189V6.51414V6.50938V6.50463V6.49987V6.49511V6.49036V6.4856V6.48084V6.47609V6.47133V6.46657V6.46181V6.45706V6.4523V6.44754V6.44279V6.43803V6.43327V6.42852V6.42376V6.419V6.41425V6.40949V6.40473V6.39998V6.39522V6.39046V6.38571V6.38095V6.37619V6.37144V6.36668V6.36192V6.35717V6.35241V6.34765V6.3429V6.33814V6.33338V6.32863V6.32387V6.31911V6.31436V6.3096V6.30484V6.30009V6.29533V6.29057V6.28582V6.28106V6.2763V6.27155V6.26679V6.26203V6.25728V6.25252V6.24776V6.24301V6.23825V6.23349V6.22874V6.22398V6.21922V6.21447V6.20971V6.20496V6.2002V6.19544V6.19069V6.18593V6.18117V6.17642V6.17166V6.1669V6.16215V6.15739V6.15263V6.14788V6.14312V6.13836V6.13361V6.12885V6.12409V6.11934V6.11458V6.10983V6.10507V6.10031V6.09556V6.0908V6.08604V6.08129V6.07653V6.07177V6.06702V6.06226V6.0575V6.05275V6.04799V6.04323V6.03848V6.03372V6.02897V6.02421V6.01945V6.0147V6.00994V6.00518V6.00043V5.99567V5.99091V5.98616V5.9814V5.97664V5.97189V5.96713V5.96238V5.95762V5.95286V5.94811V5.94335V5.93859V5.93384V5.92908V5.92432V5.91957V5.91481V5.91006V5.9053V5.90054V5.89579V5.89103V5.88627V5.88152V5.87676V5.872V5.86725V5.86249V5.85774V5.85298V5.84822V5.84347V5.83871V5.83395V5.8292V5.82444V5.81969V5.81493V5.81017V5.80542V5.80066V5.7959V5.79115V5.78639V5.78163V5.77688V5.77212V5.76737V5.76261V5.75785V5.7531V5.74834V5.74358V5.73883V5.73407V5.72932V5.72456V5.7198V5.71505V5.71029V5.70553V5.70078V5.69602V5.69126V5.68651V5.68175V5.677V5.67224V5.66748V5.66273V5.65797V5.65321V5.64846V5.6437V5.63895C26.2952 5.45309 26.256 5.30877 26.1643 5.20438C26.0727 5.10011 25.9362 5.04404 25.76 5.01832L25.7598 5.0183C25.482 4.97889 25.2046 4.94041 24.9276 4.90199C24.0677 4.78273 23.2118 4.66402 22.3606 4.51977C20.2727 4.16297 18.202 3.74902 16.2291 2.95404L16.229 2.95399C16.1491 2.92202 16.0558 2.91496 15.9652 2.92119C15.8741 2.92745 15.7823 2.94739 15.703 2.97249L15.7029 2.9725C15.4765 3.04437 15.2534 3.12725 15.0316 3.20962C15.0105 3.21744 14.9895 3.22527 14.9684 3.23308C14.7254 3.32323 14.4836 3.41153 14.2378 3.48412L14.2376 3.48416C11.6522 4.25665 8.99689 4.6592 6.32746 5.01018L6.32742 5.01019C6.08449 5.04232 5.9163 5.08999 5.81317 5.20674C5.70998 5.32356 5.6822 5.49783 5.6822 5.7501V12.677V12.6887V12.7005V12.7123V12.724V12.7358V12.7475V12.7593V12.7711V12.7828V12.7946V12.8064V12.8181V12.8299V12.8416V12.8534V12.8652V12.8769V12.8887V12.9005V12.9122V12.924V12.9357V12.9475V12.9593V12.971V12.9828V12.9945V13.0063V13.0181V13.0298V13.0416V13.0534V13.0651V13.0769V13.0886V13.1004V13.1122V13.1239V13.1357V13.1475V13.1592V13.171V13.1827V13.1945V13.2063V13.218V13.2298V13.2415V13.2533V13.2651V13.2768V13.2886V13.3003V13.3121V13.3239V13.3356V13.3474V13.3592V13.3709V13.3827V13.3944V13.4062V13.418V13.4297V13.4415V13.4532V13.465V13.4768V13.4885V13.5003V13.5121V13.5238V13.5356V13.5473V13.5591V13.5709V13.5826V13.5944V13.6061V13.6179V13.6297V13.6414V13.6532V13.6649V13.6767V13.6885V13.7002V13.712V13.7238V13.7355V13.7473V13.759V13.7708V13.7826V13.7943V13.8061V13.8178V13.8296V13.8414V13.8531V13.8649V13.8766V13.8884V13.9002V13.9119V13.9237V13.9354V13.9472V13.959V13.9707V13.9825V13.9943V14.006V14.0178V14.0295V14.0413V14.0531V14.0648V14.0766V14.0883V14.1001V14.1119V14.1236V14.1354V14.1471V14.1589V14.1707V14.1824V14.1942V14.2059V14.2177V14.2295V14.2412V14.253V14.2647V14.2765V14.2883V14.3V14.3118V14.3235V14.3353V14.3471V14.3588V14.3706V14.3824V14.3941V14.4059V14.4176V14.4294V14.4412V14.4529V14.4647V14.4764V14.4882V14.5V14.5117V14.5235V14.5352V14.547V14.5588V14.5705V14.5823V14.594V14.6058V14.6176V14.6293V14.6411V14.6528V14.6646V14.6764V14.6881V14.6999V14.7116V14.7234V14.7352V14.7469V14.7587V14.7704V14.7822V14.794V14.8057V14.8175V14.8292V14.841V14.8528V14.8645V14.8763V14.888V14.8998V14.9116V14.9233V14.9351V14.9468V14.9586V14.9704V14.9821V14.9939V15.0056V15.0174V15.0292V15.0409V15.0527V15.0644V15.0762V15.088V15.0997V15.1115V15.1232V15.135V15.1468V15.1585V15.1703V15.182V15.1938V15.2056V15.2173V15.2291V15.2409V15.2526V15.2644V15.2761V15.2879V15.2997V15.3114V15.3232V15.3349V15.3467V15.3585V15.3702V15.382V15.3937V15.4055V15.4173V15.429V15.4408V15.4525V15.4643V15.4761V15.4878V15.4996V15.5113V15.5231V15.5349V15.5466V15.5584V15.5701V15.5819V15.5937V15.6054V15.6172V15.6289V15.6407V15.6525V15.6642V15.676V15.6877V15.6995V15.7113V15.723V15.7348V15.7465V15.7583V15.7701V15.7818V15.7936V15.8053V15.8171V15.8289V15.8406V15.8524V15.8641V15.8759V15.8877V15.8994V15.9112V15.9229V15.9347V15.9465V15.9582V15.97V15.9817V15.9935V16.0053V16.017V16.0288V16.0405V16.0523V16.0641V16.0758V16.0876V16.0993V16.1111V16.1229V16.1346V16.1464V16.1581V16.1699V16.1817V16.1934V16.2052V16.2169V16.2287V16.2405V16.2522V16.264V16.2757V16.2875V16.2993V16.311V16.3228V16.3345V16.3463V16.3581V16.3698V16.3816V16.3933V16.4051V16.4169V16.4286V16.4404V16.4521V16.4639V16.4757V16.4874V16.4992V16.5109V16.5227V16.5345V16.5462V16.558V16.5697V16.5815V16.5933V16.605V16.6168V16.6285V16.6403V16.6521V16.6638V16.6756V16.6873V16.6991V16.7109V16.7226V16.7344V16.7461V16.7579V16.7697V16.7814V16.7932V16.8049V16.8167V16.8285V16.8402V16.852V16.8638V16.8755V16.8873V16.899V16.9108V16.9226V16.9343V16.9461V16.9578V16.9696V16.9814V16.9931V17.0049V17.0166V17.0284V17.0402V17.0519V17.0637V17.0754V17.0872V17.099V17.1107V17.1225V17.1342V17.146V17.1578V17.1695V17.1813V17.193V17.2048V17.2166V17.2283V17.2401V17.2518V17.2636V17.2754V17.2871V17.2989V17.3107V17.3224V17.3342V17.3459V17.3577V17.3695V17.3812V17.393V17.4047V17.4165V17.4283V17.44V17.4518V17.4635V17.4753V17.4871V17.4988V17.5106V17.5223V17.5341V17.5459V17.5576V17.5694V17.5811V17.5929V17.6047V17.6164V17.6282V17.64V17.6517V17.6635V17.6752V17.687V17.6988V17.7105V17.7223V17.734V17.7458V17.7576V17.7693V17.7811V17.7928V17.8046V17.8164V17.8281V17.8399V17.8517V17.8634V17.8752V17.8869V17.8987V17.9105V17.9222V17.934V17.9457V17.9575V17.9693V17.981V17.9928V18.0045V18.0163V18.0281V18.0398V18.0516V18.0634V18.0751V18.0869V18.0986V18.1104V18.1222V18.1339V18.1457V18.1574V18.1692V18.181V18.1927V18.2045V18.2163V18.228V18.2398V18.2515V18.2633V18.2751V18.2868V18.2986V18.3103V18.3221V18.3339V18.3456V18.3574V18.3692V18.3809V18.3927V18.4044V18.4162V18.428V18.4397V18.4515V18.4633V18.475V18.4868V18.4985V18.5103V18.5221V18.5338V18.5456V18.5573V18.5691V18.5809V18.5926V18.6044V18.6162V18.6279V18.6397V18.6514V18.6632V18.675V18.6867V18.6981C5.6759 19.0833 5.69576 19.4686 5.74163 19.8511Z" fill="#D61116" stroke="white" stroke-width="0.1"/>
<mask id="path-2-inside-1_825_37" fill="white">
<path d="M6.66442 13.194C6.66442 11.1147 6.66442 9.03537 6.66442 6.95604C6.66442 6.24741 6.95619 5.9271 7.65134 5.82618C10.0446 5.47881 12.4269 5.07806 14.7436 4.35773C14.9627 4.29846 15.1778 4.22518 15.3876 4.13834C15.7852 3.95698 16.1601 3.97965 16.5708 4.12883C18.4053 4.79578 20.3135 5.1702 22.2304 5.50075C22.9467 5.62434 23.6667 5.72892 24.3859 5.83349C24.9855 5.92052 25.3057 6.27227 25.3086 6.8851C25.3137 7.98863 25.3086 9.09217 25.3086 10.1964C25.3086 13.0485 25.3203 15.9057 25.3049 18.7599C25.2918 21.2866 24.3341 23.3964 22.3748 24.9943C21.7913 25.4711 21.1071 25.8484 20.4222 26.1739C19.1427 26.7794 17.8298 27.3096 16.5321 27.8844C16.3603 27.9664 16.1722 28.0086 15.9819 28.0077C15.7916 28.0068 15.6039 27.9629 15.4329 27.8793C14.1308 27.2942 12.8069 26.7567 11.5144 26.1592C8.3866 24.7164 6.76362 22.2468 6.67317 18.8031C6.62357 16.9346 6.66442 15.064 6.66442 13.194ZM24.3771 6.78199C23.8337 6.69862 23.3304 6.62622 22.8285 6.54359C20.5673 6.17428 18.317 5.75524 16.1506 4.9786C16.0412 4.94239 15.9231 4.94239 15.8136 4.9786C14.4525 5.47589 13.0498 5.82179 11.6311 6.09603C10.3028 6.35345 8.96649 6.56918 7.61049 6.80685C7.60684 6.86682 7.59736 6.94726 7.59736 7.02624C7.59736 10.9577 7.59736 14.8892 7.59736 18.8206C7.58554 20.4606 8.15562 22.0513 9.20575 23.3086C9.27067 23.3869 9.34215 23.46 9.4202 23.5463C9.445 23.4922 9.45886 23.4732 9.45886 23.4607C9.45886 22.0925 9.46469 20.7242 9.45521 19.356C9.45521 19.2762 9.3633 19.1695 9.28598 19.1241C8.83593 18.8609 8.57333 18.4799 8.53759 17.9541C8.51936 17.6908 8.52811 17.4253 8.52811 17.1606C8.52811 16.0849 9.06788 15.54 10.1328 15.5386H10.8346V14.6244C10.1781 14.4906 9.92496 14.1776 9.92423 13.518C9.92423 13.281 9.93517 13.0426 9.9184 12.8072C9.91202 12.7045 9.87024 12.6073 9.80023 12.5322C9.69373 12.4386 9.60882 12.3228 9.55138 12.193C9.49395 12.0632 9.46536 11.9224 9.46761 11.7804C9.46761 11.3248 9.44281 10.8663 9.47855 10.4129C9.4946 10.2001 9.57338 9.94194 9.7178 9.80153C9.90891 9.61504 9.94539 9.43076 9.92934 9.1982C9.92351 9.10713 9.92351 9.01577 9.92934 8.9247C9.94821 8.58864 10.0872 8.27064 10.3208 8.02891C10.5544 7.78718 10.867 7.63788 11.2015 7.60836C11.526 7.57509 11.8516 7.65958 12.1193 7.8465C12.387 8.03341 12.5789 8.31036 12.6603 8.62706C12.7209 8.86985 12.691 9.13385 12.723 9.38542C12.7333 9.49568 12.7786 9.59974 12.8522 9.68232C12.9621 9.78021 13.0496 9.90073 13.1088 10.0357C13.1679 10.1706 13.1973 10.3167 13.195 10.4641C13.195 10.8926 13.2161 11.3234 13.187 11.7497C13.1724 11.9581 13.1279 12.2324 12.9893 12.3501C12.6975 12.5995 12.7165 12.8935 12.7209 13.2079C12.7209 13.3812 12.7252 13.5553 12.7172 13.7279C12.7089 13.9301 12.6343 14.1239 12.5049 14.2793C12.3755 14.4347 12.1986 14.5429 12.0016 14.5871L11.8091 14.6332V15.5217H15.5029V14.1645L15.357 14.1374C14.5546 13.9787 14.1279 13.4639 14.1265 12.6463C14.1265 11.7344 14.1192 10.818 14.1265 9.90976C14.1254 9.56798 14.2535 9.2385 14.4851 8.98771C14.7167 8.73692 15.0345 8.58348 15.3745 8.55832C15.7826 8.52577 16.1926 8.52577 16.6007 8.55832C16.936 8.58464 17.2494 8.73597 17.4789 8.98249C17.7085 9.229 17.8375 9.55279 17.8407 9.89001C17.8524 10.8568 17.8509 11.8243 17.8407 12.7911C17.8345 13.0806 17.7373 13.3608 17.563 13.5918C17.3886 13.8228 17.1461 13.9927 16.8698 14.0774C16.7415 14.1169 16.608 14.1374 16.4767 14.1674V15.5276H20.1814C20.1814 15.287 20.1749 15.061 20.1814 14.8358C20.1873 14.6895 20.1559 14.6164 19.986 14.582C19.5374 14.4935 19.2631 14.1476 19.2507 13.6906C19.2427 13.3981 19.2602 13.1055 19.2419 12.813C19.2313 12.703 19.1837 12.5999 19.107 12.5205C19.0028 12.4253 18.9197 12.3093 18.863 12.18C18.8064 12.0506 18.7774 11.9107 18.778 11.7695C18.778 11.3226 18.751 10.8729 18.789 10.4297C18.8049 10.196 18.8937 9.97317 19.0428 9.79275C19.1203 9.72025 19.1797 9.63055 19.2163 9.53085C19.2529 9.43115 19.2657 9.32423 19.2536 9.21868C19.2478 9.1276 19.2478 9.03625 19.2536 8.94517C19.2821 8.23654 19.8094 7.68661 20.5308 7.61275C20.8601 7.58268 21.189 7.67292 21.4571 7.86684C21.7252 8.06077 21.9144 8.3453 21.9897 8.66801C22.0294 8.8828 22.0458 9.10127 22.0386 9.3196C22.0386 9.49072 22.0568 9.62455 22.2107 9.74375C22.4295 9.91561 22.5025 10.1745 22.5025 10.4517C22.5025 10.8904 22.5207 11.3292 22.4945 11.7643C22.4821 11.9647 22.4434 12.2368 22.3106 12.3406C21.9897 12.5922 22.0451 12.9066 22.0408 13.2262C22.0408 13.39 22.0473 13.5546 22.0408 13.7184C22.032 13.9253 21.9546 14.1234 21.8209 14.2812C21.6872 14.4391 21.5048 14.5478 21.3026 14.5901C21.2435 14.6032 21.1844 14.6186 21.1282 14.6325V15.5612C21.493 15.5612 21.8489 15.5364 22.1983 15.5664C22.5149 15.591 22.8122 15.7286 23.0364 15.9541C23.2605 16.1796 23.3966 16.4782 23.4201 16.7957C23.4496 17.2049 23.4496 17.6158 23.4201 18.025C23.4086 18.2498 23.3373 18.4673 23.2136 18.6552C23.09 18.8431 22.9185 18.9944 22.7169 19.0934C22.5375 19.1878 22.5047 19.2996 22.5054 19.4788C22.5112 20.7374 22.5054 21.9967 22.5054 23.2552C22.5054 23.343 22.5134 23.4308 22.5215 23.5843C22.625 23.4673 22.6914 23.3986 22.7512 23.3247C23.8454 21.9901 24.3727 20.4529 24.3735 18.7307C24.3735 14.8446 24.3735 10.9587 24.3735 7.07305L24.3771 6.78199ZM21.5747 19.3055H10.4195C10.4112 19.3453 10.4054 19.3856 10.402 19.4262C10.402 21.0496 10.402 22.6724 10.4064 24.2959C10.4117 24.3467 10.4273 24.3958 10.4524 24.4402C10.4776 24.4846 10.5115 24.5234 10.5523 24.554C10.844 24.7508 11.1402 24.9592 11.4604 25.1032C12.9193 25.7614 14.3847 26.3962 15.853 27.028C15.9707 27.062 16.0966 27.0522 16.2075 27.0002C17.2681 26.5468 18.3323 26.0985 19.3798 25.6159C20.0626 25.3014 20.7198 24.9314 21.3894 24.5869C21.5353 24.5138 21.5812 24.3968 21.5783 24.2315C21.5681 23.6845 21.5747 23.1346 21.5747 22.5905V19.3055ZM15.985 16.4827H10.1496C9.58578 16.4827 9.46834 16.6041 9.46761 17.1789C9.46761 17.3329 9.46761 17.4877 9.46761 17.6432C9.46761 18.2283 9.59088 18.3541 10.1671 18.3541H21.8124C21.8672 18.3541 21.9211 18.3541 21.9758 18.3541C22.3274 18.3387 22.4937 18.1786 22.5061 17.8312C22.5142 17.6118 22.5061 17.3924 22.5061 17.173C22.5061 16.6026 22.3858 16.4812 21.8197 16.4812L15.985 16.4827ZM16.9173 11.3329C16.9173 10.8868 16.9209 10.44 16.9173 9.99386C16.9129 9.65892 16.7495 9.48999 16.4147 9.48195C16.1229 9.47244 15.8311 9.47171 15.5394 9.48195C15.2221 9.49438 15.0594 9.6655 15.0572 9.98727C15.0528 10.8897 15.0528 11.7916 15.0572 12.6931C15.0572 13.0222 15.2337 13.205 15.5591 13.2138C15.8311 13.2233 16.1047 13.2203 16.3768 13.2138C16.7415 13.2065 16.9114 13.0331 16.9151 12.6726C16.9202 12.2265 16.9173 11.7804 16.9173 11.3329ZM12.2489 10.4312H10.4254V11.7899H12.2489V10.4312ZM19.7263 11.7892H21.5499V10.4304H19.7263V11.7892ZM10.8732 13.6577H11.7682V12.756H10.8732V13.6577ZM20.1997 12.7552V13.6533H21.0998V12.7552H20.1997ZM11.7916 9.46074C11.7631 9.1514 11.901 8.80915 11.5727 8.62998C11.4942 8.59465 11.4089 8.577 11.3228 8.57826C11.2368 8.57953 11.152 8.59968 11.0745 8.6373C10.7594 8.82305 10.8739 9.15506 10.8703 9.46074H11.7916ZM21.1115 9.46074C21.0976 9.15213 21.2172 8.81281 20.8926 8.63437C20.8141 8.59891 20.7288 8.58094 20.6427 8.5817C20.5566 8.58245 20.4716 8.60192 20.3937 8.63876C20.072 8.82524 20.2106 9.16237 20.188 9.46074H21.1115Z"/>
</mask>
<path d="M6.66442 13.194C6.66442 11.1147 6.66442 9.03537 6.66442 6.95604C6.66442 6.24741 6.95619 5.9271 7.65134 5.82618C10.0446 5.47881 12.4269 5.07806 14.7436 4.35773C14.9627 4.29846 15.1778 4.22518 15.3876 4.13834C15.7852 3.95698 16.1601 3.97965 16.5708 4.12883C18.4053 4.79578 20.3135 5.1702 22.2304 5.50075C22.9467 5.62434 23.6667 5.72892 24.3859 5.83349C24.9855 5.92052 25.3057 6.27227 25.3086 6.8851C25.3137 7.98863 25.3086 9.09217 25.3086 10.1964C25.3086 13.0485 25.3203 15.9057 25.3049 18.7599C25.2918 21.2866 24.3341 23.3964 22.3748 24.9943C21.7913 25.4711 21.1071 25.8484 20.4222 26.1739C19.1427 26.7794 17.8298 27.3096 16.5321 27.8844C16.3603 27.9664 16.1722 28.0086 15.9819 28.0077C15.7916 28.0068 15.6039 27.9629 15.4329 27.8793C14.1308 27.2942 12.8069 26.7567 11.5144 26.1592C8.3866 24.7164 6.76362 22.2468 6.67317 18.8031C6.62357 16.9346 6.66442 15.064 6.66442 13.194ZM24.3771 6.78199C23.8337 6.69862 23.3304 6.62622 22.8285 6.54359C20.5673 6.17428 18.317 5.75524 16.1506 4.9786C16.0412 4.94239 15.9231 4.94239 15.8136 4.9786C14.4525 5.47589 13.0498 5.82179 11.6311 6.09603C10.3028 6.35345 8.96649 6.56918 7.61049 6.80685C7.60684 6.86682 7.59736 6.94726 7.59736 7.02624C7.59736 10.9577 7.59736 14.8892 7.59736 18.8206C7.58554 20.4606 8.15562 22.0513 9.20575 23.3086C9.27067 23.3869 9.34215 23.46 9.4202 23.5463C9.445 23.4922 9.45886 23.4732 9.45886 23.4607C9.45886 22.0925 9.46469 20.7242 9.45521 19.356C9.45521 19.2762 9.3633 19.1695 9.28598 19.1241C8.83593 18.8609 8.57333 18.4799 8.53759 17.9541C8.51936 17.6908 8.52811 17.4253 8.52811 17.1606C8.52811 16.0849 9.06788 15.54 10.1328 15.5386H10.8346V14.6244C10.1781 14.4906 9.92496 14.1776 9.92423 13.518C9.92423 13.281 9.93517 13.0426 9.9184 12.8072C9.91202 12.7045 9.87024 12.6073 9.80023 12.5322C9.69373 12.4386 9.60882 12.3228 9.55138 12.193C9.49395 12.0632 9.46536 11.9224 9.46761 11.7804C9.46761 11.3248 9.44281 10.8663 9.47855 10.4129C9.4946 10.2001 9.57338 9.94194 9.7178 9.80153C9.90891 9.61504 9.94539 9.43076 9.92934 9.1982C9.92351 9.10713 9.92351 9.01577 9.92934 8.9247C9.94821 8.58864 10.0872 8.27064 10.3208 8.02891C10.5544 7.78718 10.867 7.63788 11.2015 7.60836C11.526 7.57509 11.8516 7.65958 12.1193 7.8465C12.387 8.03341 12.5789 8.31036 12.6603 8.62706C12.7209 8.86985 12.691 9.13385 12.723 9.38542C12.7333 9.49568 12.7786 9.59974 12.8522 9.68232C12.9621 9.78021 13.0496 9.90073 13.1088 10.0357C13.1679 10.1706 13.1973 10.3167 13.195 10.4641C13.195 10.8926 13.2161 11.3234 13.187 11.7497C13.1724 11.9581 13.1279 12.2324 12.9893 12.3501C12.6975 12.5995 12.7165 12.8935 12.7209 13.2079C12.7209 13.3812 12.7252 13.5553 12.7172 13.7279C12.7089 13.9301 12.6343 14.1239 12.5049 14.2793C12.3755 14.4347 12.1986 14.5429 12.0016 14.5871L11.8091 14.6332V15.5217H15.5029V14.1645L15.357 14.1374C14.5546 13.9787 14.1279 13.4639 14.1265 12.6463C14.1265 11.7344 14.1192 10.818 14.1265 9.90976C14.1254 9.56798 14.2535 9.2385 14.4851 8.98771C14.7167 8.73692 15.0345 8.58348 15.3745 8.55832C15.7826 8.52577 16.1926 8.52577 16.6007 8.55832C16.936 8.58464 17.2494 8.73597 17.4789 8.98249C17.7085 9.229 17.8375 9.55279 17.8407 9.89001C17.8524 10.8568 17.8509 11.8243 17.8407 12.7911C17.8345 13.0806 17.7373 13.3608 17.563 13.5918C17.3886 13.8228 17.1461 13.9927 16.8698 14.0774C16.7415 14.1169 16.608 14.1374 16.4767 14.1674V15.5276H20.1814C20.1814 15.287 20.1749 15.061 20.1814 14.8358C20.1873 14.6895 20.1559 14.6164 19.986 14.582C19.5374 14.4935 19.2631 14.1476 19.2507 13.6906C19.2427 13.3981 19.2602 13.1055 19.2419 12.813C19.2313 12.703 19.1837 12.5999 19.107 12.5205C19.0028 12.4253 18.9197 12.3093 18.863 12.18C18.8064 12.0506 18.7774 11.9107 18.778 11.7695C18.778 11.3226 18.751 10.8729 18.789 10.4297C18.8049 10.196 18.8937 9.97317 19.0428 9.79275C19.1203 9.72025 19.1797 9.63055 19.2163 9.53085C19.2529 9.43115 19.2657 9.32423 19.2536 9.21868C19.2478 9.1276 19.2478 9.03625 19.2536 8.94517C19.2821 8.23654 19.8094 7.68661 20.5308 7.61275C20.8601 7.58268 21.189 7.67292 21.4571 7.86684C21.7252 8.06077 21.9144 8.3453 21.9897 8.66801C22.0294 8.8828 22.0458 9.10127 22.0386 9.3196C22.0386 9.49072 22.0568 9.62455 22.2107 9.74375C22.4295 9.91561 22.5025 10.1745 22.5025 10.4517C22.5025 10.8904 22.5207 11.3292 22.4945 11.7643C22.4821 11.9647 22.4434 12.2368 22.3106 12.3406C21.9897 12.5922 22.0451 12.9066 22.0408 13.2262C22.0408 13.39 22.0473 13.5546 22.0408 13.7184C22.032 13.9253 21.9546 14.1234 21.8209 14.2812C21.6872 14.4391 21.5048 14.5478 21.3026 14.5901C21.2435 14.6032 21.1844 14.6186 21.1282 14.6325V15.5612C21.493 15.5612 21.8489 15.5364 22.1983 15.5664C22.5149 15.591 22.8122 15.7286 23.0364 15.9541C23.2605 16.1796 23.3966 16.4782 23.4201 16.7957C23.4496 17.2049 23.4496 17.6158 23.4201 18.025C23.4086 18.2498 23.3373 18.4673 23.2136 18.6552C23.09 18.8431 22.9185 18.9944 22.7169 19.0934C22.5375 19.1878 22.5047 19.2996 22.5054 19.4788C22.5112 20.7374 22.5054 21.9967 22.5054 23.2552C22.5054 23.343 22.5134 23.4308 22.5215 23.5843C22.625 23.4673 22.6914 23.3986 22.7512 23.3247C23.8454 21.9901 24.3727 20.4529 24.3735 18.7307C24.3735 14.8446 24.3735 10.9587 24.3735 7.07305L24.3771 6.78199ZM21.5747 19.3055H10.4195C10.4112 19.3453 10.4054 19.3856 10.402 19.4262C10.402 21.0496 10.402 22.6724 10.4064 24.2959C10.4117 24.3467 10.4273 24.3958 10.4524 24.4402C10.4776 24.4846 10.5115 24.5234 10.5523 24.554C10.844 24.7508 11.1402 24.9592 11.4604 25.1032C12.9193 25.7614 14.3847 26.3962 15.853 27.028C15.9707 27.062 16.0966 27.0522 16.2075 27.0002C17.2681 26.5468 18.3323 26.0985 19.3798 25.6159C20.0626 25.3014 20.7198 24.9314 21.3894 24.5869C21.5353 24.5138 21.5812 24.3968 21.5783 24.2315C21.5681 23.6845 21.5747 23.1346 21.5747 22.5905V19.3055ZM15.985 16.4827H10.1496C9.58578 16.4827 9.46834 16.6041 9.46761 17.1789C9.46761 17.3329 9.46761 17.4877 9.46761 17.6432C9.46761 18.2283 9.59088 18.3541 10.1671 18.3541H21.8124C21.8672 18.3541 21.9211 18.3541 21.9758 18.3541C22.3274 18.3387 22.4937 18.1786 22.5061 17.8312C22.5142 17.6118 22.5061 17.3924 22.5061 17.173C22.5061 16.6026 22.3858 16.4812 21.8197 16.4812L15.985 16.4827ZM16.9173 11.3329C16.9173 10.8868 16.9209 10.44 16.9173 9.99386C16.9129 9.65892 16.7495 9.48999 16.4147 9.48195C16.1229 9.47244 15.8311 9.47171 15.5394 9.48195C15.2221 9.49438 15.0594 9.6655 15.0572 9.98727C15.0528 10.8897 15.0528 11.7916 15.0572 12.6931C15.0572 13.0222 15.2337 13.205 15.5591 13.2138C15.8311 13.2233 16.1047 13.2203 16.3768 13.2138C16.7415 13.2065 16.9114 13.0331 16.9151 12.6726C16.9202 12.2265 16.9173 11.7804 16.9173 11.3329ZM12.2489 10.4312H10.4254V11.7899H12.2489V10.4312ZM19.7263 11.7892H21.5499V10.4304H19.7263V11.7892ZM10.8732 13.6577H11.7682V12.756H10.8732V13.6577ZM20.1997 12.7552V13.6533H21.0998V12.7552H20.1997ZM11.7916 9.46074C11.7631 9.1514 11.901 8.80915 11.5727 8.62998C11.4942 8.59465 11.4089 8.577 11.3228 8.57826C11.2368 8.57953 11.152 8.59968 11.0745 8.6373C10.7594 8.82305 10.8739 9.15506 10.8703 9.46074H11.7916ZM21.1115 9.46074C21.0976 9.15213 21.2172 8.81281 20.8926 8.63437C20.8141 8.59891 20.7288 8.58094 20.6427 8.5817C20.5566 8.58245 20.4716 8.60192 20.3937 8.63876C20.072 8.82524 20.2106 9.16237 20.188 9.46074H21.1115Z" fill="#D61116" stroke="white" stroke-width="0.2" mask="url(#path-2-inside-1_825_37)"/>
<path d="M15.9359 20.3227H15.2351C15.2297 20.4351 15.2251 20.5361 15.2209 20.6346L15.2176 20.7148L15.1386 20.7289C14.7311 20.8018 14.4136 20.953 14.2019 21.1612C13.9925 21.3671 13.8813 21.6337 13.8912 21.9535C13.9117 22.242 14.0013 22.5213 14.1526 22.7679L14.1533 22.7691L14.1533 22.7691C14.3523 23.1036 14.7141 23.2351 15.1215 23.2739L15.212 23.2825V23.3735V24.2479V24.2983L15.1714 24.3283L15.096 24.384L15.0248 24.4367L14.9639 24.3723L14.5409 23.925H13.861C13.8783 23.9714 13.8947 24.0173 13.9107 24.0618C13.9274 24.1084 13.9436 24.1536 13.9595 24.1963C14.007 24.3233 14.0553 24.4366 14.1188 24.5376L15.9359 20.3227ZM15.9359 20.3227V20.6184V20.6981L16.0136 20.7159C16.4563 20.8173 16.7678 20.9706 16.9699 21.177C17.1495 21.3604 17.2502 21.5933 17.273 21.8903H16.5762C16.5454 21.7963 16.5015 21.7053 16.433 21.6312C16.3433 21.5343 16.2197 21.4749 16.0545 21.4653L15.9487 21.4591V21.5651V22.435V22.518L16.0303 22.5333C16.4554 22.6132 16.7733 22.7737 16.9825 22.994C17.1902 23.2127 17.2979 23.4979 17.2905 23.8439L17.2905 23.844C17.2835 24.1729 17.1635 24.4519 16.9518 24.6632C16.7392 24.8754 16.4287 25.0245 16.0337 25.0813L15.9523 25.093L15.9481 25.1751C15.9427 25.2792 15.9374 25.3861 15.9317 25.5016H15.2391V25.1833V25.092L15.1482 25.0837C14.7047 25.0431 14.3404 24.8896 14.1188 24.5376L15.9359 20.3227ZM15.1064 22.5385L15.221 22.5554V22.4395V21.5666V21.4576L15.1123 21.467C14.9579 21.4805 14.829 21.5301 14.7357 21.6236C14.6424 21.7171 14.5961 21.8431 14.5846 21.9868C14.5725 22.1389 14.6149 22.2697 14.7139 22.3674C14.8095 22.4619 14.9471 22.5149 15.1064 22.5385ZM15.9487 24.269V24.3911L16.0684 24.367C16.2204 24.3365 16.3512 24.2795 16.4435 24.1839C16.5381 24.0859 16.5825 23.9576 16.5794 23.8064C16.5763 23.6582 16.5324 23.5302 16.4382 23.4346C16.3453 23.3403 16.2147 23.2891 16.0608 23.2704L15.9487 23.2568V23.3697V24.269Z" fill="#D61116" stroke="white" stroke-width="0.2"/>
</g>
<defs>
<clipPath id="clip0_825_37">
<rect width="22.4" height="28" fill="white" transform="translate(4.8 2)"/>
</clipPath>
</defs>
</svg>
