<svg width="19" height="18" viewBox="0 0 19 18" fill="none" xmlns="http://www.w3.org/2000/svg">
<path d="M1.5 8C1.21667 8 0.979167 7.90417 0.7875 7.7125C0.595833 7.52083 0.5 7.28333 0.5 7V1C0.5 0.716667 0.595833 0.479167 0.7875 0.2875C0.979167 0.0958333 1.21667 0 1.5 0H7.5C7.78333 0 8.02083 0.0958333 8.2125 0.2875C8.40417 0.479167 8.5 0.716667 8.5 1V7C8.5 7.28333 8.40417 7.52083 8.2125 7.7125C8.02083 7.90417 7.78333 8 7.5 8H1.5ZM11.5 8C11.2167 8 10.9792 7.90417 10.7875 7.7125C10.5958 7.52083 10.5 7.28333 10.5 7V1C10.5 0.716667 10.5958 0.479167 10.7875 0.2875C10.9792 0.0958333 11.2167 0 11.5 0H17.5C17.7833 0 18.0208 0.0958333 18.2125 0.2875C18.4042 0.479167 18.5 0.716667 18.5 1V7C18.5 7.28333 18.4042 7.52083 18.2125 7.7125C18.0208 7.90417 17.7833 8 17.5 8H11.5ZM1.5 18C1.21667 18 0.979167 17.9042 0.7875 17.7125C0.595833 17.5208 0.5 17.2833 0.5 17V11C0.5 10.7167 0.595833 10.4792 0.7875 10.2875C0.979167 10.0958 1.21667 10 1.5 10H7.5C7.78333 10 8.02083 10.0958 8.2125 10.2875C8.40417 10.4792 8.5 10.7167 8.5 11V17C8.5 17.2833 8.40417 17.5208 8.2125 17.7125C8.02083 17.9042 7.78333 18 7.5 18H1.5ZM14.5 18C14.2167 18 13.9792 17.9042 13.7875 17.7125C13.5958 17.5208 13.5 17.2833 13.5 17V15H11.475C11.1917 15 10.9583 14.9042 10.775 14.7125C10.5917 14.5208 10.5 14.2833 10.5 14C10.5 13.7167 10.5958 13.4792 10.7875 13.2875C10.9792 13.0958 11.2167 13 11.5 13H13.5V10.975C13.5 10.6917 13.5958 10.4583 13.7875 10.275C13.9792 10.0917 14.2167 10 14.5 10C14.7833 10 15.0208 10.0958 15.2125 10.2875C15.4042 10.4792 15.5 10.7167 15.5 11V13H17.525C17.8083 13 18.0417 13.0958 18.225 13.2875C18.4083 13.4792 18.5 13.7167 18.5 14C18.5 14.2833 18.4042 14.5208 18.2125 14.7125C18.0208 14.9042 17.7833 15 17.5 15H15.5V17.025C15.5 17.3083 15.4042 17.5417 15.2125 17.725C15.0208 17.9083 14.7833 18 14.5 18ZM12.5 2V6H16.5V2H12.5ZM2.5 2V6H6.5V2H2.5ZM2.5 12V16H6.5V12H2.5Z" fill="#C4C4C4"/>
</svg>
